<?xml version="1.0" encoding="UTF-8"?><svg id="Layer_2" xmlns="http://www.w3.org/2000/svg" viewBox="0 0 398.1553 111.2622"><g id="Components"><g id="_5a67b5f8-5e2d-4be0-9d2e-c0372375f24f_13"><path d="M334.7759,82.2476H63.3794c-7.999,0-14.5068,6.5078-14.5068,14.5073s6.5078,14.5073,14.5068,14.5073h271.3965c7.999,0,14.5068-6.5083,14.5068-14.5073s-6.5078-14.5073-14.5068-14.5073ZM334.7759,105.8496H63.3794c-5.0146,0-9.0947-4.0801-9.0947-9.0947s4.0801-9.0947,9.0947-9.0947h271.3965c5.0146,0,9.0947,4.0801,9.0947,9.0947s-4.0801,9.0947-9.0947,9.0947Z" style="fill:#f8f3e8;"/><path d="M83.896,96.4092c.6982-.4131,1.0986-1.0723,1.0986-1.874,0-1.5898-1.3057-2.623-3.2441-2.623h-5.583v9.8223h5.9834c2.0557,0,3.4248-1.1504,3.4248-2.8691,0-1.1377-.6328-2.0166-1.6797-2.4561ZM78.2095,93.6689h3.4375c.75,0,1.2412.4395,1.2412,1.1123,0,.6846-.5039,1.1367-1.2412,1.1367h-3.4375v-2.249ZM82.0474,99.9766h-3.8379v-2.4814h3.8379c.8535,0,1.4092.5039,1.4092,1.2402,0,.75-.5557,1.2412-1.4092,1.2412Z" style="fill:#f8f3e8;"/><path d="M100.7583,97.5723c0,1.4736-1.0605,2.4561-2.6494,2.4561-1.5771,0-2.6367-.9824-2.6367-2.4561v-5.6602h-2.0557v5.7637c0,2.5205,1.874,4.1875,4.6924,4.1875s4.6914-1.667,4.6914-4.1875v-5.7637h-2.042v5.6602Z" style="fill:#f8f3e8;"/><rect x="111.2622" y="91.9121" width="2.042" height="9.8223" style="fill:#f8f3e8;"/><polygon points="123.9204 91.9121 121.8784 91.9121 121.8784 101.7344 129.8267 101.7344 129.8267 99.9766 123.9204 99.9766 123.9204 91.9121" style="fill:#f8f3e8;"/><polygon points="134.6157 93.6689 138.2603 93.6689 138.2603 101.7344 140.3022 101.7344 140.3022 93.6689 143.9331 93.6689 143.9331 91.9121 134.6157 91.9121 134.6157 93.6689" style="fill:#f8f3e8;"/><polygon points="160.5288 101.7344 162.5708 101.7344 162.5708 97.6758 168.231 97.6758 168.231 95.9316 162.5708 95.9316 162.5708 93.6689 168.7739 93.6689 168.7739 91.9121 160.5288 91.9121 160.5288 101.7344" style="fill:#f8f3e8;"/><path d="M185.5063,95.0527c0-1.8877-1.4219-3.1406-3.5674-3.1406h-5.3506v9.8223h2.042v-3.541h3.0625l1.9258,3.541h2.21v-.1943l-2.1318-3.709c1.1367-.5039,1.8096-1.499,1.8096-2.7783ZM181.8354,96.4482h-3.2051v-2.7793h3.2051c.918,0,1.5381.5566,1.5381,1.3838s-.6074,1.3955-1.5381,1.3955Z" style="fill:#f8f3e8;"/><polygon points="195.7642 97.5859 201.6577 97.5859 201.6577 95.8281 195.7642 95.8281 195.7642 93.6689 202.0454 93.6689 202.0454 91.9121 193.7222 91.9121 193.7222 101.7344 202.187 101.7344 202.187 99.9766 195.7642 99.9766 195.7642 97.5859" style="fill:#f8f3e8;"/><path d="M215.7661,96.0479l-2.0166-.2588c-1.0332-.1426-1.8223-.3359-1.8223-1.0215,0-.6719.918-1.1494,2.2881-1.1494,1.3437,0,2.998.4648,4.1611,1.1631v-2.0557c-1.1367-.5684-2.8428-.9434-4.2773-.9434-2.585,0-4.3037,1.2412-4.3037,3.1025,0,1.9512,1.7314,2.4678,3.4629,2.6875l1.9521.2461c.9434.1162,1.6416.375,1.6416,1.0469,0,.749-1.0215,1.1631-2.5596,1.1631-1.4473,0-3.2305-.4785-4.4453-1.1895v1.9648c.9688.6328,2.7783,1.0596,4.5488,1.0596,2.7529,0,4.5879-1.2539,4.5879-3.1279,0-1.8867-1.5635-2.4814-3.2178-2.6875Z" style="fill:#f8f3e8;"/><polygon points="234.2827 95.8281 228.9839 95.8281 228.9839 91.9121 226.9419 91.9121 226.9419 101.7344 228.9839 101.7344 228.9839 97.5859 234.2827 97.5859 234.2827 101.7344 236.3247 101.7344 236.3247 91.9121 234.2827 91.9121 234.2827 95.8281" style="fill:#f8f3e8;"/><path d="M258.7095,91.9121h-4.3291v9.8223h4.3291c3.1797,0,5.2861-1.9648,5.2861-4.9248,0-2.9336-2.1064-4.8975-5.2861-4.8975ZM258.606,99.9766h-2.1836v-6.3076h2.1836c1.9648,0,3.2705,1.2539,3.2705,3.1406,0,1.9004-1.3057,3.167-3.2705,3.167Z" style="fill:#f8f3e8;"/><path d="M275.7017,91.6533l-5.3896,9.8867v.1943h2.1973l.8652-1.7324h4.8604l.8652,1.7324h2.1973v-.1943l-5.3896-9.8867h-.2061ZM274.2534,98.2578l1.5508-3.0635,1.5518,3.0635h-3.1025Z" style="fill:#f8f3e8;"/><rect x="288.5571" y="91.9121" width="2.042" height="9.8223" style="fill:#f8f3e8;"/><polygon points="301.2153 91.9121 299.1733 91.9121 299.1733 101.7344 307.1216 101.7344 307.1216 99.9766 301.2153 99.9766 301.2153 91.9121" style="fill:#f8f3e8;"/><polygon points="316.8989 96.3193 313.9907 91.9121 311.8198 91.9121 311.8198 92.1055 315.8774 98.0762 315.8774 101.7344 317.9194 101.7344 317.9194 98.0762 321.978 92.1055 321.978 91.9121 319.8071 91.9121 316.8989 96.3193" style="fill:#f8f3e8;"/><circle cx="65.9136" cy="96.7549" r="2.7129" style="fill:#f8f3e8;"/><path d="M332.2412,94.042c-1.498,0-2.7129,1.2144-2.7129,2.7129s1.2148,2.7129,2.7129,2.7129,2.7134-1.2148,2.7134-2.7129-1.2148-2.7129-2.7134-2.7129Z" style="fill:#f8f3e8;"/><path d="M41.5444,31.5801c-.3145-.7656-1.8853-3.9746-4.7144-9.6304l-.2012-.269.4707-.0649c1.7939-.2271,3.478-.6064,5.0518-1.145,1.5703-.5391,3.0498-1.2593,4.4419-2.1548,1.3921-.8989,2.479-2.0767,3.2671-3.5366.7822-1.457,1.1782-3.1084,1.1782-4.9482,0-2.6475-1.0903-4.7339-3.2676-6.2617-2.1772-1.5254-4.6787-2.2876-7.5049-2.2876-4.043,0-7.3652,1.1323-9.9678,3.3999-2.6021,2.2651-3.9033,5.3735-3.9033,9.3257v.334l-.4053-.0649c-.9409-.3145-1.8496-.853-2.7256-1.6157-.876-.7656-1.5479-1.4697-2.0215-2.1221-.4707-.6523-1.0415-1.5151-1.7163-2.5923l-4.7793,4.7793c1.3462,2.5596,3.2314,4.6006,5.6553,6.1289,2.4238,1.5249,5.0488,2.3101,7.8779,2.356h.1333l.1362.2012c2.3779,4.8472,3.8804,8.147,4.5098,9.8994,1.5254,4.0396,2.291,7.6089,2.291,10.7041,0,4.5356-1.5283,8.4263-4.5781,11.6807-3.0532,3.2544-6.8462,4.8833-11.3794,4.8833-3.3677,0-6.1938-1.0352-8.4844-3.0986-2.291-2.064-3.4331-4.7793-3.4331-8.1475,0-2.3784.7627-4.6787,2.2876-6.9014,1.5283-2.2197,3.4556-3.3325,5.7915-3.3325,1.7036,0,2.9854.5161,3.8384,1.5513.8501,1.0317,1.5703,2.4463,2.1548,4.2407l5.5869-4.9155c-1.2554-3.0532-2.7056-5.2178-4.3413-6.4961-1.6416-1.2812-4.0522-1.9209-7.2388-1.9209-4.4448,0-8.147,1.8984-11.1094,5.688-2.9624,3.7964-4.4453,7.9819-4.4453,12.5601,0,5.2046,1.8657,9.5586,5.5903,13.0596,3.7251,3.501,8.2124,5.2534,13.4653,5.2534,6.7783,0,12.6123-2.3364,17.5054-7.002,4.8926-4.6694,7.3394-10.3701,7.3394-17.1025,0-3.2773-.7856-6.7554-2.356-10.4351ZM35.4155,15.5547h-1.4116v-1.2134c0-1.6157.6943-2.9722,2.0864-4.0723,1.3916-1.0996,2.917-1.6514,4.5781-1.6514.8989,0,1.6611.1592,2.2905.4736,1.0776.4023,1.6157.9639,1.6157,1.6841,0,1.0317-.6191,1.9404-1.8525,2.7256-1.2363.7852-2.5244,1.3237-3.8706,1.6157-1.3467.2925-2.4922.438-3.436.438Z" style="fill:#f8f3e8;"/><path d="M45.9863,54.0005h6.8691v-.0679c.1328-5.1167,1.6582-12.1187,4.5781-21.0059.3569-.0908,1.0645-.0908,2.1187,0,1.0547.0908,2.3687,0,3.939-.2695,1.5708-.269,3.2319-.5742,4.9839-.9082,1.752-.3379,3.501-.9766,5.2529-1.9209,1.749-.9409,3.3193-2.0181,4.7114-3.2319,1.3921-1.2134,2.5244-2.8486,3.4004-4.9155.876-2.0635,1.314-4.377,1.314-6.9336,0-3.1865-.7852-5.9604-2.3555-8.3159-1.5737-2.356-3.8384-3.5337-6.8008-3.5337-1.9761,0-3.7705.4702-5.3892,1.4116l1.5508-3.4331h-6.937l-.0649.1362c-.0454.0874-.1816.3799-.4058.8726-.2236.4966-.4023.8989-.5386,1.2139-4.2632,8.978-8.0337,18.144-11.311,27.5049-3.2769,9.3574-4.9155,17.1577-4.9155,23.397ZM61.6064,21.6157c.3145-.7202.7524-1.752,1.314-3.0981.561-1.3467.9536-2.291,1.1777-2.8301.4058-.895.8306-1.9077,1.2783-3.0269.4512-1.1226.8081-1.999,1.0771-2.6284l.4058-.9409c1.4375-.6294,2.7837-.9443,4.0396-.9443,1.8398,0,3.2412.6396,4.2085,1.9214.9634,1.2783,1.4468,2.8389,1.4468,4.6787,0,2.8262-1.6934,5.5093-5.084,8.0469-3.3877,2.5337-7.3267,3.8477-11.814,3.9355.4023-1.165,1.0542-2.8716,1.9502-5.1138Z" style="fill:#f8f3e8;"/><path d="M77.6318,54.0005h6.8687c-.2271-5.3437,1.9272-14.1172,6.4634-26.3267.7627.1816,1.6484,1.583,2.6572,4.208,1.0127,2.625,1.9634,5.4868,2.8618,8.5854.8989,3.0952,2.0767,6.0254,3.5371,8.7866,1.4565,2.7607,2.9717,4.3413,4.5425,4.7466.6748.1787,1.4146.2695,2.2222.2695,1.7944,0,3.0308-.4282,3.7021-1.2817l1.9536-6.2588c-.9868.4932-2.041.7397-3.1636.7397-1.3467,0-2.4468-.584-3.2998-1.7524-1.168-1.6577-2.6025-4.9121-4.3091-9.7627-1.7065-4.8477-3.501-8.2124-5.3862-10.0977,5.4316-.9438,10.0552-3.77,13.8711-8.4844,3.8125-4.7114,6.2363-9.9873,7.271-15.8213h-6.7324c-.4966,3.0078-1.1128,5.5776-1.8525,7.7095-.7397,2.1313-1.7622,4.1499-3.063,6.0576-1.3047,1.9077-3.0078,3.4136-5.1172,4.5137-2.1118,1.0996-4.6235,1.8071-7.54,2.1182,3.0952-7.9424,6.2163-14.7432,9.3574-20.3989-1.3013-.4512-3.8384-.6748-7.6089-.6748-2.333,5.1621-4.1987,9.3608-5.5874,12.5923-1.3916,3.2319-3.144,7.6089-5.2529,13.1279-2.1089,5.5229-3.7021,10.5845-4.7793,15.1821-1.0771,4.604-1.6157,8.6763-1.6157,12.2222Z" style="fill:#f8f3e8;"/><path d="M148.7319,66.1196c6.7744,0,12.6118-2.3364,17.5049-7.002,4.8926-4.6694,7.3394-10.3701,7.3394-17.1025,0-3.2773-.7852-6.7554-2.3589-10.4351-.3115-.7656-1.8853-3.9746-4.7114-9.6304l-.2007-.269.4702-.0649c1.7939-.2271,3.478-.6064,5.0483-1.145,1.5708-.5391,3.0537-1.2593,4.4453-2.1548,1.3887-.8989,2.479-2.0767,3.2642-3.5366.7852-1.457,1.1782-3.1084,1.1782-4.9482,0-2.6475-1.0874-4.7339-3.2646-6.2617-2.1768-1.5254-4.6787-2.2876-7.5078-2.2876-4.0396,0-7.3623,1.1323-9.9644,3.3999-2.6021,2.2651-3.9033,5.3735-3.9033,9.3257v.334l-.4058-.0649c-.9409-.3145-1.8525-.853-2.7256-1.6157-.876-.7656-1.5508-1.4697-2.0215-2.1221-.4702-.6523-1.0444-1.5151-1.7163-2.5923l-4.7793,4.7793c1.3467,2.5596,3.2314,4.6006,5.6553,6.1289,2.4238,1.5249,5.0488,2.3101,7.8779,2.356h.1333l.1362.2012c2.3784,4.8472,3.8804,8.147,4.5103,9.8994,1.5249,4.0396,2.2871,7.6089,2.2871,10.7041,0,4.5356-1.5249,8.4263-4.5781,11.6807-3.0532,3.2544-6.8428,4.8833-11.3789,4.8833-3.3647,0-6.1938-1.0352-8.4814-3.0986-2.2905-2.064-3.436-4.7793-3.436-8.1475,0-2.3784.7656-4.6787,2.2905-6.9014,1.5254-2.2197,3.4556-3.3325,5.792-3.3325,1.7031,0,2.9814.5161,3.835,1.5513.8535,1.0317,1.5737,2.4463,2.1543,4.2407l5.5908-4.9155c-1.2588-3.0532-2.7061-5.2178-4.3447-6.4961-1.6387-1.2812-4.0493-1.9209-7.2354-1.9209-4.4453,0-8.1475,1.8984-11.1099,5.688-2.9624,3.7964-4.4453,7.9819-4.4453,12.5601,0,5.2046,1.8623,9.5586,5.5874,13.0596,3.728,3.501,8.2153,5.2534,13.4688,5.2534ZM163.6768,15.5547v-1.2134c0-1.6157.6978-2.9722,2.0894-4.0723,1.3887-1.0996,2.917-1.6514,4.5781-1.6514.896,0,1.6582.1592,2.2876.4736,1.0771.4023,1.6157.9639,1.6157,1.6841,0,1.0317-.6162,1.9404-1.8491,2.7256-1.2363.7852-2.5278,1.3237-3.8711,1.6157-1.3496.2925-2.4917.438-3.436.438h-1.4146Z" style="fill:#f8f3e8;"/><path d="M179.7021,44.5752c2.1963,6.2817,7.4497,9.4253,15.7559,9.4253,2.064,0,4.0493-.4053,5.9575-1.2134,1.9077-.8076,3.4453-1.6934,4.6138-2.6572,1.1646-.9668,2.2549-2.0898,3.2642-3.3677,1.0088-1.2788,1.6611-2.1646,1.9531-2.6606.292-.4937.5029-.8955.6392-1.2104l-3.5693-1.6841-.4702.6748c-.2695.4478-.7397.9863-1.4146,1.6157-.6719.6265-1.4702,1.2559-2.3882,1.8853-.9214.6265-2.1123,1.168-3.5693,1.6157-1.46.4478-2.998.6719-4.6138.6719-2.2451,0-4.0396-.6069-5.3862-1.8169-2.9619-2.6025-3.6597-7.4302-2.0859-14.4775,1.4336-6.418,4.1074-12.2974,8.0107-17.6382,3.9067-5.4316,7.6089-8.1475,11.1099-8.1475,1.2559,0,2.1899.3149,2.7935.9409.6069.6299.8633,1.4829.7754,2.5601-.0908,1.0771-.269,2.145-.5386,3.1963-.269,1.0576-.6846,2.1675-1.2456,3.3354-.5615,1.165-.9668,1.9629-1.2104,2.3877-.25.4287-.438.7754-.5742,1.0449l8.0791-.0684.4736-1.6152c.3569-1.0322.7041-2.3784,1.0415-4.04.3374-1.6611.5063-3.1182.5063-4.377,0-2.4658-.6846-4.5781-2.0537-6.3271-1.3696-1.752-3.6016-2.6279-6.7007-2.6279-5.0713,0-10.123,2.2681-15.1489,6.8008-5.3408,4.8052-9.4258,10.8174-12.2554,18.0435-3.0498,7.7676-3.6338,14.3447-1.7485,19.731Z" style="fill:#f8f3e8;"/><path d="M213.8394,41.2393c-.0459,1.9536.4019,3.8062,1.3462,5.5552,1.165,2.1543,3.2188,3.8936,6.1587,5.2202,2.9395,1.3208,5.7783,1.9858,8.5171,1.9858,1.752,0,3.77-.4507,6.061-1.3462,2.333-.8989,4.4092-2.1997,6.2266-3.9067,1.8203-1.7031,3.1309-3.6797,3.939-5.9248l-3.2319-1.6157c-1.5249,2.1543-3.5234,3.8159-5.9897,4.9834-2.4722,1.1685-5.0288,1.6392-7.6768,1.4121-1.9761,0-3.501-.75-4.5781-2.2554-1.0771-1.5024-1.5479-3.1504-1.4146-4.9482.1328-1.7944.5156-3.4097,1.145-4.8472,1.0776-1.9307,2.8037-3.4004,5.1851-4.4097,2.3784-1.0088,4.5977-1.5605,6.6646-1.6514.4932,0,.8306-.0649,1.0093-.2017.1362-.0903.292-.3145.4736-.6709.1787-.3604.4805-1.0454.9087-2.0542.4248-1.0122.772-1.7847,1.0415-2.3232-3.8613-.0908-6.3955-.9863-7.6089-2.6929-1.0317-1.4829-1.165-3.4785-.4023-5.9932.8989-3.0078,2.356-5.4219,4.377-7.2388,2.0181-1.8169,4.2407-2.7256,6.6646-2.7256,1.2559,0,2.1318.4707,2.625,1.4116.4932.9443.7202,1.8203.6748,2.6279-.4932,3.4561-1.6387,6.5771-3.4326,9.3574h7.0669c.4053,0,.6748-.0449.8076-.1328l.0684-.0684c.0454-.0449.1362-.2007.269-.4702,1.2139-3.3677,1.8398-6.0835,1.8853-8.1475.0908-.4478.0908-.999,0-1.6514-.0908-.6489-.1685-1.3335-.2334-2.0537-.0684-.7173-.373-1.4243-.9121-2.1191-.5386-.6973-1.1777-1.3237-1.9175-1.8848-.7397-.5615-1.8301-1.0093-3.2642-1.3467-1.437-.3374-3.1211-.5059-5.0518-.5059-2.6021,0-5.3506.73-8.248,2.1899-2.894,1.4565-5.4087,3.5654-7.5405,6.3271-2.1318,2.7612-3.1309,5.7363-2.9951,8.9229.0879,1.5703.5259,3.0625,1.311,4.4775.7852,1.4111,1.853,2.5244,3.1997,3.332-2.5146.4023-4.8608,1.5933-7.0347,3.5693-2.1807,1.9761-3.7607,4.0171-4.7471,6.126-.8535,1.8398-1.3013,3.7378-1.3462,5.6875Z" style="fill:#f8f3e8;"/><path d="M253.7646,54.0005c-.2695-7.2256,3.478-19.9966,11.2427-38.313,3.9067,25.3184,5.8145,38.0859,5.7236,38.313h6.937c0-6.0151,1.9956-14.4321,5.9897-25.25,3.9976-10.8174,7.9912-19.8828,11.9854-27.1997-1.5244-.4512-4.062-.6748-7.6084-.6748-4.9805,10.0552-9.27,20.4932-12.8584,31.3076l-3.4365-30.6328c-1.3008-.4512-3.835-.6748-7.6055-.6748-.3145.584-.6294,1.2231-.9438,1.9209-.3149.6943-.6523,1.4795-1.0093,2.3555-.3599.876-.6523,1.5381-.876,1.9858-9.6074,21.6353-14.4097,37.2554-14.4097,46.8623h6.8691Z" style="fill:#f8f3e8;"/><path d="M300.7603,25.8564c-2.5146.4023-4.8574,1.5933-7.0342,3.5693-2.1772,1.9761-3.7607,4.0171-4.7471,6.126-.8535,1.8398-1.3013,3.7378-1.3467,5.6875-.0454,1.9536.4023,3.8062,1.3467,5.5552,1.168,2.1543,3.2188,3.8936,6.1582,5.2202,2.9395,1.3208,5.7822,1.9858,8.5171,1.9858,1.7524,0,3.7739-.4507,6.061-1.3462,2.333-.8989,4.4097-2.1997,6.23-3.9067,1.8169-1.7031,3.1309-3.6797,3.939-5.9248l-3.2319-1.6157c-1.5278,2.1543-3.5269,3.8159-5.9927,4.9834-2.4692,1.1685-5.0293,1.6392-7.6768,1.4121-1.9761,0-3.501-.75-4.5781-2.2554-1.0776-1.5024-1.5479-3.1504-1.415-4.9482.1367-1.7944.5161-3.4097,1.1455-4.8472,1.0771-1.9307,2.8037-3.4004,5.1851-4.4097,2.3784-1.0088,4.6011-1.5605,6.6646-1.6514.4932,0,.8306-.0649,1.0088-.2017.1362-.0903.292-.3145.4736-.6709.1787-.3604.4805-1.0454.9087-2.0542.4253-1.0122.7725-1.7847,1.0415-2.3232-3.8579-.0908-6.395-.9863-7.6055-2.6929-1.0352-1.4829-1.168-3.4785-.4053-5.9932.8984-3.0078,2.3555-5.4219,4.377-7.2388,2.0181-1.8169,4.2407-2.7256,6.6646-2.7256,1.2554,0,2.1313.4707,2.6279,1.4116.4932.9443.7173,1.8203.6719,2.6279-.4932,3.4561-1.6387,6.5771-3.4331,9.3574h7.0703c.4023,0,.6719-.0449.8076-.1328l.0649-.0684c.0454-.0449.1362-.2007.2695-.4702,1.2134-3.3677,1.8394-6.0835,1.8853-8.1475.0908-.4478.0908-.999,0-1.6514-.0879-.6489-.1655-1.3335-.2339-2.0537-.0679-.7173-.3696-1.4243-.9082-2.1191-.5391-.6973-1.1782-1.3237-1.9209-1.8848-.7397-.5615-1.8301-1.0093-3.2642-1.3467-1.4375-.3374-3.1216-.5059-5.0488-.5059-2.6055,0-5.3535.73-8.248,2.1899-2.8975,1.4565-5.4116,3.5654-7.5435,6.3271-2.1318,2.7612-3.1313,5.7363-2.9951,8.9229.0879,1.5703.5259,3.0625,1.3145,4.4775.7817,1.4111,1.8491,2.5244,3.1958,3.332Z" style="fill:#f8f3e8;"/><path d="M327.5576,54.0005c-.1782-4.8052,1.6841-12.7935,5.5874-23.9712l2.5601.269c1.3921.9443,2.7612,2.7061,4.1079,5.2856,1.3467,2.583,2.4658,5.1299,3.3647,7.6445.8984,2.5112,1.9858,4.8574,3.2671,7.0347,1.2783,2.1768,2.6123,3.4229,4.0039,3.7373.6748.1787,1.3921.2695,2.1577.2695,1.7944,0,3.0273-.4282,3.7021-1.2817l1.9536-6.2588c-.9897.4932-2.0444.7397-3.167.7397-1.3467,0-2.4463-.584-3.2998-1.7524-.8076-1.21-2.0767-3.7798-3.8027-7.709-1.7295-3.9258-3.4233-6.7197-5.0845-8.3809,3.9067-.8989,7.5405-2.7061,10.9087-5.4219,3.3682-2.7158,5.0488-5.8662,5.0488-9.458,0-2.917-.9414-5.7012-2.8262-8.3486-1.8853-2.6509-4.2441-3.9746-7.0703-3.9746-2.1997,0-4.2212.7656-6.061,2.2905l1.4829-3.6372c-1.0771-.1328-3.2314-.2012-6.4634-.2012-.3149.584-.6294,1.2231-.9443,1.9209-.3145.6943-.6489,1.4795-1.0088,2.3555-.3604.876-.6523,1.5381-.8765,1.9858-9.604,21.6353-14.4092,37.2554-14.4092,46.8623h6.8687ZM338.4663,16.564c1.4341-3.3228,2.4658-5.8115,3.0952-7.4727,1.6162-.853,3.167-1.2813,4.6465-1.2813,1.8853,0,3.3682.6743,4.4453,2.021,1.0771,1.3467,1.6157,2.9854,1.6157,4.916,0,1.7065-.6069,3.1958-1.8203,4.4775-1.21,1.2783-2.7578,2.2549-4.6431,2.9263-1.8853.6753-3.7051,1.1685-5.4541,1.4829-1.7524.3149-3.4136.4707-4.9839.4707.6294-1.7036,1.6611-4.2178,3.0986-7.5405Z" style="fill:#f8f3e8;"/><path d="M126.8877,58.3716H43.3267c-1.0527,2.188-3.0781,4.2593-5.4141,6.1357h91.9526c-1.3423-1.8838-2.3389-3.9297-2.9775-6.1357Z" style="fill:#f8f3e8;"/><path d="M398.1553,1.9888l-5.8501-.8433-1.249,4.4727-.0005.0015c-.8794,2.9785-1.7813,5.6846-2.6992,8.1182-.6294,1.6611-1.2461,3.0854-1.8496,4.2729-.6069,1.1909-1.3921,2.3818-2.3589,3.5693-.9639,1.1909-2.1187,2.0991-3.4653,2.7256-1.3467.6294-2.875.9443-4.5815.9443-1.6157,0-2.8584-.5713-3.7344-1.7163-.876-1.1455-1.3145-2.5474-1.3145-4.2085,0-.8076.3833-2.4595,1.1455-4.9482.7627-2.4917,1.6255-5.1523,2.5928-7.9785.9634-2.8291,1.5571-4.6919,1.7842-5.5903h-7.1382c-.0454.1362-.6714,1.9756-1.8853,5.522-1.21,3.5464-2.1313,6.5542-2.7612,9.0234-.6294,2.4692-.9409,4.5103-.9409,6.126,0,.4932.0425,1.1455.1333,1.9531.269,2.064,1.6514,3.8838,4.1401,5.4546,2.4917,1.5703,4.8604,2.3555,7.106,2.3555,3.3643,0,6.8428-1.4375,10.4346-4.3091.0327,0,.7202-.5967,1.8691-1.6738-1.0679,4.896-2.1709,9.0327-3.3521,12.6313-2.998,9.1206-6.5444,14.7046-10.8437,17.0732-3.374,1.8594-7.5693,1.856-12.7676-.0259l.0034-.0063h-2.4985l-.7104.4961v.0005l-.5161.3633c-.7788.5742-2.2808,1.145-4.5098,1.7197-2.2295.5737-4.7729.8594-7.6411.8594h-170.5752c-1.0542,2.187-2.4331,4.2344-4.1367,6.1357h168.0864c2.7837,0,5.3208-.1328,7.6084-.3989,2.2905-.2661,4.0527-.5747,5.2793-.9214,1.2266-.3472,2.3003-.7368,3.2183-1.165.9219-.4282,1.4961-.7266,1.7197-.8926.2271-.1621.3765-.3013.4609-.4277,0,0,.104-.1235.2759-.3276v-.0005c4.02,1.6616,7.6929,2.4922,11.061,2.4922,3.1797,0,6.0933-.7397,8.7734-2.2163,5.8857-3.2412,10.2954-9.8311,13.8774-20.7334,2.1221-6.46,3.9873-14.5029,5.8306-25.2715v-.001c.1411-.8252.2822-1.6743.4229-2.5322.5171-3.146,1.0337-6.5068,1.5566-10.1221Z" style="fill:#f8f3e8;"/></g></g></svg>